<?xml version="1.0" standalone="no"?>
<!DOCTYPE svg PUBLIC "-//W3C//DTD SVG 20010904//EN"
 "http://www.w3.org/TR/2001/REC-SVG-20010904/DTD/svg10.dtd">
<svg version="1.0" xmlns="http://www.w3.org/2000/svg"
 width="804.000000pt" height="576.000000pt" viewBox="0 0 804.000000 576.000000"
 preserveAspectRatio="xMidYMid meet">

<g transform="translate(0.000000,576.000000) scale(0.100000,-0.100000)"
fill="#000000" stroke="none">
<path d="M3998 4326 c-8 -7 -57 -70 -108 -140 l-94 -126 -59 0 c-52 0 -62 -3
-86 -29 -44 -47 -191 -258 -191 -273 0 -22 22 -38 51 -38 22 0 27 -5 31 -30
l5 -30 -187 0 c-131 0 -190 -4 -198 -12 -7 -7 -12 -44 -12 -94 0 -71 3 -85 20
-97 19 -13 20 -27 22 -353 l3 -338 25 -13 c19 -9 204 -12 810 -13 698 0 788 1
808 15 l22 16 0 337 c0 326 1 338 20 350 17 11 20 23 20 95 0 51 -5 88 -12 95
-8 8 -66 12 -195 12 l-183 0 0 30 c0 26 4 30 28 30 31 0 52 16 52 40 0 12
-172 245 -210 283 -4 5 -32 12 -61 15 l-54 7 -83 105 c-144 181 -152 188 -184
156z m382 -476 c4 -28 3 -50 -2 -50 -4 0 -8 7 -8 15 0 20 0 20 -10 54 -4 16
-6 32 -2 35 10 10 15 -3 22 -54z m-267 -38 c44 -4 46 -10 11 -43 -22 -21 -25
-29 -19 -67 l6 -43 -38 19 c-38 20 -39 20 -75 1 l-38 -19 6 42 c5 37 2 46 -20
67 -35 33 -33 39 12 43 31 3 40 9 57 40 l19 37 21 -37 c17 -31 27 -38 58 -40z
m224 62 c3 -8 1 -20 -5 -26 -8 -8 -13 -7 -18 5 -10 27 -22 20 -43 -25 l-20
-43 3 39 c4 41 25 66 58 66 10 0 21 -7 25 -16z m98 -62 c-8 -8 -25 10 -25 26
0 13 2 13 14 -4 8 -10 13 -21 11 -22z m-653 -114 c-6 -25 -48 -24 -55 2 -3 12
1 24 11 29 22 12 51 -7 44 -31z m550 0 c-6 -25 -48 -24 -55 2 -3 12 1 24 11
29 22 12 51 -7 44 -31z m-522 -343 l0 -135 -45 0 -45 0 -1 53 c-1 57 -1 159 0
195 1 19 6 22 46 22 l45 0 0 -135z m270 0 l0 -135 -55 0 -55 0 0 135 0 135 55
0 55 0 0 -135z m251 88 c1 -46 1 -122 0 -190 -1 -32 -2 -33 -46 -33 l-45 0 0
135 0 135 45 0 45 0 1 -47z m-857 -156 l1 -47 -46 0 c-43 0 -47 2 -50 28 -2
15 -3 37 -1 50 3 21 8 23 50 20 l46 -3 0 -48z m1197 49 c2 -3 3 -25 1 -50 l-4
-46 -44 0 c-24 0 -44 5 -45 10 0 6 -1 24 -1 40 0 17 1 35 1 40 1 10 83 15 92
6z m-1200 -283 c1 -22 1 -158 0 -195 -1 -27 -4 -28 -48 -28 l-48 0 2 117 c1
65 2 119 3 121 0 1 20 2 45 2 36 0 45 -4 46 -17z m1200 2 c1 -8 1 -24 1 -35 0
-11 0 -58 -1 -105 l-1 -85 -47 0 -48 0 2 102 c1 57 2 111 2 121 1 13 10 17 46
17 33 0 45 -4 46 -15z m-591 -54 l0 -47 -55 -2 -55 -2 0 49 c0 55 8 60 78 52
31 -3 32 -5 32 -50z m253 6 c-1 -23 -2 -45 -2 -49 -1 -3 -21 -6 -46 -6 l-45 0
0 48 c0 53 7 59 65 52 28 -3 30 -6 28 -45z m-523 -6 l0 -48 -45 0 c-48 0 -47
-1 -47 67 0 11 0 22 1 25 1 3 21 5 46 5 l45 0 0 -49z"/>
<path d="M6520 2349 c-41 -9 -58 -25 -70 -68 -20 -74 -5 -156 37 -203 9 -10
49 -37 89 -58 80 -45 101 -70 106 -126 l3 -39 -57 -3 -58 -3 0 36 0 35 -65 0
-65 0 0 -42 c0 -61 17 -115 43 -133 16 -11 51 -15 147 -15 120 0 128 1 148 23
40 43 53 131 31 210 -14 52 -69 110 -133 140 -74 35 -128 103 -96 122 5 3 32
3 60 -1 43 -6 50 -10 50 -29 0 -24 30 -35 91 -35 37 0 42 11 34 81 -11 95 -23
103 -154 109 -61 3 -124 2 -141 -1z"/>
<path d="M1240 2040 l0 -310 65 0 65 0 0 88 0 87 26 -45 c14 -25 33 -53 42
-64 25 -28 86 -56 137 -63 l45 -6 0 67 c0 64 -1 66 -25 66 -41 0 -82 27 -94
61 -18 53 -15 59 29 59 30 0 47 7 65 25 23 22 25 31 25 122 -1 122 -12 172
-45 201 -25 21 -35 22 -181 22 l-154 0 0 -310z m250 125 c0 -40 -4 -55 -14
-55 -7 0 -34 -3 -60 -6 l-46 -7 0 62 0 61 60 0 60 0 0 -55z"/>
<path d="M1680 2040 l0 -310 160 0 160 0 0 28 c0 15 -3 44 -6 65 l-7 37 -88 0
-89 0 0 60 0 60 60 0 60 0 0 66 0 66 -60 -4 -60 -4 0 58 0 58 90 0 90 0 0 49
c0 27 3 56 6 65 5 14 -12 16 -155 16 l-161 0 0 -310z"/>
<path d="M2094 2327 c-22 -19 -28 -34 -32 -80 -10 -118 15 -161 132 -228 80
-45 106 -78 106 -133 l0 -36 -55 0 -55 0 0 35 0 35 -65 0 -65 0 0 -55 c0 -61
19 -108 49 -125 11 -5 74 -10 141 -10 121 0 122 0 151 29 30 31 33 43 29 146
-3 100 -39 150 -146 203 -63 32 -94 66 -94 103 0 19 4 21 31 15 17 -3 44 -6
60 -6 24 0 29 -4 29 -24 0 -28 16 -36 76 -36 l44 0 0 61 c0 115 -18 128 -182
129 -119 0 -129 -2 -154 -23z"/>
<path d="M2547 2339 c-40 -23 -47 -67 -47 -299 0 -315 0 -315 187 -315 l125 0
29 33 c24 27 29 42 30 85 0 28 2 124 4 212 3 192 -4 241 -40 272 -24 21 -35
23 -148 23 -68 0 -130 -5 -140 -11z m201 -301 l-3 -183 -57 -3 -58 -3 0 186 0
185 60 0 60 0 -2 -182z"/>
<path d="M2940 2040 l0 -310 160 0 160 0 0 65 0 65 -95 0 -95 0 0 245 0 245
-65 0 -65 0 0 -310z"/>
<path d="M3260 2338 c-1 -7 34 -147 77 -310 l78 -298 57 0 c55 0 57 1 67 33
19 61 151 564 151 576 0 8 -19 11 -62 9 l-62 -3 -45 -168 c-24 -92 -46 -165
-48 -163 -4 4 -35 116 -82 294 l-12 42 -59 0 c-41 0 -60 -4 -60 -12z"/>
<path d="M3760 2040 l0 -310 155 0 155 0 0 65 0 65 -90 0 -90 0 0 60 0 60 60
0 60 0 0 60 c0 59 0 60 -29 60 -16 0 -43 3 -60 6 -30 6 -31 8 -31 60 l0 54 90
0 90 0 0 65 0 65 -155 0 -155 0 0 -310z"/>
<path d="M4360 2040 l0 -310 65 0 65 0 0 125 0 126 58 -3 57 -3 3 -122 3 -123
64 0 65 0 0 310 0 310 -65 0 -65 0 0 -120 c0 -136 0 -137 -75 -126 l-45 7 0
120 0 119 -65 0 -65 0 0 -310z"/>
<path d="M4853 2339 c-42 -22 -48 -59 -48 -309 0 -207 2 -239 17 -262 22 -34
71 -48 168 -48 97 0 146 14 168 48 14 22 18 57 20 226 4 227 -2 296 -28 328
-17 22 -26 23 -147 25 -77 2 -137 -2 -150 -8z m197 -304 l0 -185 -60 0 -60 0
0 185 0 185 60 0 60 0 0 -185z"/>
<path d="M5240 2285 l0 -65 60 0 60 0 2 -52 c1 -29 2 -138 2 -243 l1 -190 63
-3 62 -3 0 246 0 245 65 0 65 0 0 65 0 65 -190 0 -190 0 0 -65z"/>
<path d="M5687 2343 c-4 -3 -7 -143 -7 -310 l0 -303 160 0 160 0 0 65 0 65
-95 0 -96 0 3 58 3 57 58 3 57 3 0 65 0 65 -57 -2 -58 -3 -3 57 -3 57 96 0 95
0 0 65 0 65 -153 0 c-85 0 -157 -3 -160 -7z"/>
<path d="M6060 2040 l0 -310 160 0 160 0 0 65 0 65 -95 0 -95 0 0 245 0 245
-65 0 -65 0 0 -310z"/>
</g>
</svg>
